<svg xmlns="http://www.w3.org/2000/svg" xmlns:xlink="http://www.w3.org/1999/xlink" width="270" zoomAndPan="magnify" viewBox="0 0 202.5 44.999999" height="60" preserveAspectRatio="xMidYMid meet" version="1.0"><defs><g/><clipPath id="ae2ea28cdc"><path d="M 0 0.0546875 L 202 0.0546875 L 202 44.945312 L 0 44.945312 Z M 0 0.0546875 " clip-rule="nonzero"/></clipPath><clipPath id="a797d2d1ce"><path d="M 10.777344 13.726562 L 191.527344 13.726562 L 191.527344 31.726562 L 10.777344 31.726562 Z M 10.777344 13.726562 " clip-rule="nonzero"/></clipPath></defs><g clip-path="url(#ae2ea28cdc)"><path fill="#ffffff" d="M 0 0.0546875 L 202.5 0.0546875 L 202.5 52.554688 L 0 52.554688 Z M 0 0.0546875 " fill-opacity="1" fill-rule="nonzero"/><path fill="#ffffff" d="M 0 0.0546875 L 202.5 0.0546875 L 202.5 45.054688 L 0 45.054688 Z M 0 0.0546875 " fill-opacity="1" fill-rule="nonzero"/><path fill="#000000" d="M 0 0.0546875 L 202.5 0.0546875 L 202.5 45.054688 L 0 45.054688 Z M 0 0.0546875 " fill-opacity="1" fill-rule="nonzero"/></g><g clip-path="url(#a797d2d1ce)"><path fill="#ffffff" d="M 190.953125 13.726562 L 10.828125 13.726562 L 10.828125 31.726562 L 191.476562 31.726562 L 191.476562 13.726562 L 190.953125 13.726562 M 190.953125 31.191406 L 11.355469 31.191406 L 11.355469 14.265625 L 190.953125 14.265625 L 190.953125 31.191406 " fill-opacity="1" fill-rule="nonzero"/></g><g fill="#ffffff" fill-opacity="1"><g transform="translate(50.52916, 26.323652)"><g><path d="M 6.390625 -3.722656 C 6.390625 -2.578125 5.351562 -1.527344 4.203125 -1.527344 C 3.058594 -1.527344 2.019531 -2.578125 2.019531 -3.722656 C 2.019531 -4.871094 3.058594 -5.910156 4.203125 -5.910156 C 5.351562 -5.910156 6.390625 -4.871094 6.390625 -3.722656 Z M 8.027344 -3.714844 C 8.027344 -5.765625 6.257812 -7.535156 4.203125 -7.535156 C 2.152344 -7.535156 0.382812 -5.765625 0.382812 -3.714844 C 0.382812 -1.660156 2.152344 0.109375 4.203125 0.109375 C 6.257812 0.109375 8.027344 -1.660156 8.027344 -3.714844 Z M 8.027344 -3.714844 "/></g></g></g><g fill="#ffffff" fill-opacity="1"><g transform="translate(58.938124, 26.323652)"><g><path d="M 6.488281 0 L 6.488281 -7.425781 L 4.847656 -7.425781 L 4.847656 -2.796875 L 2.292969 -7.425781 L 0.65625 -7.425781 L 0.65625 0 L 2.292969 0 L 2.292969 -4.628906 L 4.847656 0 Z M 6.488281 0 "/></g></g></g><g fill="#ffffff" fill-opacity="1"><g transform="translate(66.080281, 26.323652)"><g><path d="M 3.539062 -1.15625 C 2.730469 -1.15625 2.03125 -1.5625 1.988281 -2.445312 L 0.328125 -2.445312 C 0.339844 -0.632812 1.835938 0.175781 3.472656 0.175781 C 4.992188 0.175781 6.554688 -0.46875 6.554688 -2.21875 C 6.554688 -5.046875 2.261719 -4.09375 2.261719 -5.417969 C 2.261719 -5.972656 2.90625 -6.191406 3.363281 -6.191406 C 4.183594 -6.191406 4.628906 -5.941406 4.71875 -5.164062 L 6.300781 -5.164062 C 6.246094 -6.859375 4.871094 -7.535156 3.34375 -7.535156 C 1.988281 -7.535156 0.566406 -6.816406 0.566406 -5.285156 C 0.566406 -2.542969 4.859375 -3.472656 4.859375 -2.03125 C 4.859375 -1.363281 4.050781 -1.15625 3.539062 -1.15625 Z M 3.539062 -1.15625 "/></g></g></g><g fill="#ffffff" fill-opacity="1"><g transform="translate(72.960341, 26.323652)"><g/></g></g><g fill="#ffffff" fill-opacity="1"><g transform="translate(75.690524, 26.323652)"><g><path d="M 0.65625 0 L 4.957031 0 L 4.957031 -1.484375 L 2.292969 -1.484375 L 2.292969 -7.425781 L 0.65625 -7.425781 Z M 0.65625 0 "/></g></g></g><g fill="#ffffff" fill-opacity="1"><g transform="translate(81.030762, 26.323652)"><g><path d="M 4.957031 -1.484375 L 2.292969 -1.484375 L 2.292969 -2.980469 L 4.847656 -2.980469 L 4.847656 -4.46875 L 2.292969 -4.46875 L 2.292969 -5.941406 L 4.957031 -5.941406 L 4.957031 -7.425781 L 0.65625 -7.425781 L 0.65625 0 L 4.957031 0 Z M 4.957031 -1.484375 "/></g></g></g><g fill="#ffffff" fill-opacity="1"><g transform="translate(86.644018, 26.323652)"><g><path d="M 3.539062 -1.15625 C 2.730469 -1.15625 2.03125 -1.5625 1.988281 -2.445312 L 0.328125 -2.445312 C 0.339844 -0.632812 1.835938 0.175781 3.472656 0.175781 C 4.992188 0.175781 6.554688 -0.46875 6.554688 -2.21875 C 6.554688 -5.046875 2.261719 -4.09375 2.261719 -5.417969 C 2.261719 -5.972656 2.90625 -6.191406 3.363281 -6.191406 C 4.183594 -6.191406 4.628906 -5.941406 4.71875 -5.164062 L 6.300781 -5.164062 C 6.246094 -6.859375 4.871094 -7.535156 3.34375 -7.535156 C 1.988281 -7.535156 0.566406 -6.816406 0.566406 -5.285156 C 0.566406 -2.542969 4.859375 -3.472656 4.859375 -2.03125 C 4.859375 -1.363281 4.050781 -1.15625 3.539062 -1.15625 Z M 3.539062 -1.15625 "/></g></g></g><g fill="#ffffff" fill-opacity="1"><g transform="translate(93.524078, 26.323652)"><g><path d="M 9.917969 0 L 8.476562 -7.425781 L 6.53125 -7.425781 L 4.992188 -2.21875 L 3.441406 -7.425781 L 1.496094 -7.425781 L 0.0546875 0 L 1.855469 0 L 2.730469 -5.121094 L 4.183594 0 L 5.789062 0 L 7.242188 -5.121094 L 8.113281 0 Z M 9.917969 0 "/></g></g></g><g fill="#ffffff" fill-opacity="1"><g transform="translate(103.494709, 26.323652)"><g><path d="M 4.695312 -2.839844 L 2.816406 -2.839844 L 3.757812 -5.484375 Z M 7.46875 0 L 4.457031 -7.425781 L 3.070312 -7.425781 L 0.0546875 0 L 1.8125 0 L 2.347656 -1.496094 L 5.175781 -1.496094 L 5.710938 0 Z M 7.46875 0 "/></g></g></g><g fill="#ffffff" fill-opacity="1"><g transform="translate(111.01909, 26.323652)"><g><path d="M 3.8125 -5.941406 L 5.929688 -5.941406 L 5.929688 -7.425781 L 0.0546875 -7.425781 L 0.0546875 -5.941406 L 2.171875 -5.941406 L 2.171875 0 L 3.8125 0 Z M 3.8125 -5.941406 "/></g></g></g><g fill="#ffffff" fill-opacity="1"><g transform="translate(117.00365, 26.323652)"><g><path d="M 4.957031 -1.484375 L 2.292969 -1.484375 L 2.292969 -2.980469 L 4.847656 -2.980469 L 4.847656 -4.46875 L 2.292969 -4.46875 L 2.292969 -5.941406 L 4.957031 -5.941406 L 4.957031 -7.425781 L 0.65625 -7.425781 L 0.65625 0 L 4.957031 0 Z M 4.957031 -1.484375 "/></g></g></g><g fill="#ffffff" fill-opacity="1"><g transform="translate(122.616909, 26.323652)"><g><path d="M 2.292969 -2.652344 L 2.304688 -2.652344 L 4.074219 0 L 6.148438 0 L 4.019531 -2.730469 C 4.957031 -2.960938 5.710938 -3.789062 5.710938 -5.046875 C 5.710938 -6.453125 4.640625 -7.425781 3.441406 -7.425781 L 0.65625 -7.425781 L 0.65625 0 L 2.292969 0 Z M 3.167969 -6.136719 C 3.648438 -6.136719 4.148438 -5.722656 4.148438 -5.046875 C 4.148438 -4.335938 3.648438 -3.941406 3.167969 -3.941406 L 2.292969 -3.941406 L 2.292969 -6.136719 Z M 3.167969 -6.136719 "/></g></g></g><g fill="#ffffff" fill-opacity="1"><g transform="translate(128.634233, 26.323652)"><g><path d="M 2.292969 0 L 2.292969 -7.425781 L 0.65625 -7.425781 L 0.65625 0 Z M 2.292969 0 "/></g></g></g><g fill="#ffffff" fill-opacity="1"><g transform="translate(131.582827, 26.323652)"><g><path d="M 4.695312 -2.839844 L 2.816406 -2.839844 L 3.757812 -5.484375 Z M 7.46875 0 L 4.457031 -7.425781 L 3.070312 -7.425781 L 0.0546875 0 L 1.8125 0 L 2.347656 -1.496094 L 5.175781 -1.496094 L 5.710938 0 Z M 7.46875 0 "/></g></g></g><g fill="#ffffff" fill-opacity="1"><g transform="translate(139.107208, 26.323652)"><g><path d="M 4.695312 -2.839844 L 2.816406 -2.839844 L 3.757812 -5.484375 Z M 7.46875 0 L 4.457031 -7.425781 L 3.070312 -7.425781 L 0.0546875 0 L 1.8125 0 L 2.347656 -1.496094 L 5.175781 -1.496094 L 5.710938 0 Z M 7.46875 0 "/></g></g></g><g fill="#ffffff" fill-opacity="1"><g transform="translate(146.631588, 26.323652)"><g><path d="M 0.65625 0 L 4.957031 0 L 4.957031 -1.484375 L 2.292969 -1.484375 L 2.292969 -7.425781 L 0.65625 -7.425781 Z M 0.65625 0 "/></g></g></g></svg>